<svg width="151" height="20" xmlns="http://www.w3.org/2000/svg">
  <path d="M140.933333 5.27632184h-6.17885c-1.04138.06942529-1.319081.31241379-1.319081 1.56206896v3.4712644h7.497931V5.27632184zm3.262989-2.7770115V17.634023h-3.262989v-4.3737931h-7.497931v4.3390804h-3.297701V5.76229885c0-2.08275862.833104-3.26298851 3.297701-3.26298851h10.76092zM126.84 5.76229885v8.19218395c0 2.6034482-1.457931 3.6795402-3.297701 3.6795402h-10.379081V2.49931034h10.413793c2.777012 0 3.262989 1.77034483 3.262989 3.26298851zm-3.332414.90252874c0-.83310345-.520689-1.38850575-1.388506-1.38850575h-5.65816v9.44183906h5.65816c1.284368-.0694253 1.388506-.8331034 1.388506-1.457931V6.66482759zM46.2025287 2.49931034h3.2977012v5.97057472h7.3590804V2.49931034h3.2977012V17.5993103h-3.2977012v-6.1788505h-7.3590804v6.1788505h-3.2977012V2.49931034zm19.5779311 0l4.0960919 6.17885058 4.0613793-6.17885058h3.9919541l-6.3871265 9.65011496v5.449885h-3.2977011v-5.449885l-6.4565518-9.65011496h3.9919541zm30.6165517 0h10.5873565c1.492643 0 2.985287.20827587 2.915862 3.26298851V17.5993103h-3.297701V6.8383908c0-1.28436781-.138851-1.56206896-1.18023-1.56206896H99.66V17.634023h-3.2977011V2.49931034h.0347126zM150.791724 17.5993103h-3.297701V2.49931034h3.297701V17.5993103zm-71.195632 0h10.5873563c2.1174712 0 2.9852873-.6248275 2.915862-3.6448275V2.49931034h-3.2977011V13.2949425c0 1.2843678-.1735632 1.4579311-1.1802299 1.4579311h-5.7622988V2.49931034h-3.2977012V17.5993103h.0347127zM32.8728736 3.36712644c-.9372414-.48597701-1.9439081-.90252874-2.9505747-1.28436782C25.3749425.52068966 20.0291954-.03471264 14.9611494.59011494c-4.6862069.65954023-9.23356319 1.77034483-12.77425285 4.99862069C.48597701 7.18551724-.52068965 9.54597701.31241379 11.8370115c1.07609196 2.7770115 3.95724138 4.6167816 6.56068966 5.6928736 7.63678165 3.0894252 18.05057475 2.9852873 25.44436785-.5554023 2.534023-1.2843679 5.3804597-3.4018391 5.7275862-6.4565518.2777011-3.29770111-2.6034483-5.76229882-5.1721839-7.15080456zM15.7595402 4.6862069c.6248276-1.24965518 1.7703449-2.70758621 3.3324138-2.74229885 3.4018391-.03471265 6.5606897.48597701 9.6154023 1.31908046.1735632.10413793.3818391.13885057.5206897.31241379.1041379.20827586-.104138.34712644-.2082759.48597701-2.4993103 1.94390805-5.3457471 3.05471264-8.2963218 3.99195402-1.4926437.34712644-2.9852874 1.00666667-4.6514943.65954023-.3818391-.10413793-.7289655-.34712643-.9372414-.72896551-.4165517-1.14551725.1388506-2.32574713.6248276-3.29770115zM5.65816092 14.8570115c-.38183908.3471264-.76367816-.1041379-1.1108046-.2777012-1.77034483-1.1802298-3.36712643-3.0547126-2.91586207-5.27632179.72896552-2.88114943 3.71425288-4.4432184 6.21356322-5.48459771 1.45793104-.55540229 3.02000003-1.00666666 4.61678163-1.24965517.1735632 0 .3818391-.03471264.485977.13885058l-.0347127.17356322C9.71954023 6.49126437 7.63678161 10.6914943 5.65816092 14.8570115zm16.21080458 1.3885057c-.7289655 1.1108046-1.9091954 2.0827587-3.3671264 1.9439081-3.2282759-.0347127-6.3871265-.5554023-9.30298853-1.4232184-.13885057-.0347126-.27770114-.1041379-.34712643-.2429885-.06942529-.1735632.03471264-.3124138.13885057-.4512644 2.67287359-2.1521839 5.83172419-3.1588506 8.99057469-4.2002299 1.1802299-.3471264 2.4298851-.6942528 3.7489655-.5206896.5554023.0347126 1.076092.4165517 1.2843679.9372414.2777011 1.4926436-.4859771 2.7422988-1.1455173 3.9572413zm14.5445977-5.4151724c-.7636781 2.9852874-3.991954 4.582069-6.5954023 5.5887357-1.4232184.485977-2.8464368.971954-4.3737931 1.1108046-.1041379 0-.2429885 0-.2777011-.1388506l.0347126-.1735632c2.1868966-2.4645977 3.8531035-5.2416092 5.3110345-8.05333337.6595402-1.28436782 1.3190805-2.56873563 1.8744828-3.85310345.0694252-.10413793.1735632-.13885057.2777011-.17356322.5206897.03471265.9025287.45126437 1.3537931.76367817 1.4926437 1.21494252 2.8464368 2.91586206 2.3951724 4.92919537z" fill="#003A70"/>
</svg>
